# xmcd
#
# Track frame offsets:
#	150
#	21376
#	35485
#	57468
#	73628
#	92284
#	110291
#	126108
#	140789
#	155000
#	170768
#	189438
#	206511
#	227310
#	244436
#	259313
#	280729
#	299918
#	315224
#	333594
#
# Disc length: 4729
#
# Revision: 3
# Processed by: cddbd v1.5.1PL0 Copyright (c) Steve Scherf et al.
# Submitted via: Axialis_AX_CDPlayer 2.6
# Normalized: r2:DSETVAR1
#
DISCID=31127714
DTITLE=Various Artist - Top of The Pops Winter 2003
DYEAR=1900
DGENRE=
TTITLE0=Sting feat. Vincente Amigo - Send your love
TTITLE1=Lumidee - Never leave you (Uh ohhh, uh ohhh)
TTITLE2=Robbie Williams - Something beautiful
TTITLE3=Eiffel 65 - Una notte e forse mai piu'
TTITLE4=Kosheen - All in my head
TTITLE5=Beyonce' feat. Jay-z - Crazy in love
TTITLE6=DJ Francesco - Salta
TTITLE7=Salif Keita vs Martin Solveig - Madam
TTITLE8=Lene - It's your duty
TTITLE9=Nickelback - Someday
TTITLE10=Texas feat. Kardinal Offishall - Carnival girl
TTITLE11=Simply Red - Fake
TTITLE12=Stereophonics - Maybe tomorrow
TTITLE13=50 Cent feat. Nate Dogg - 21 questions
TTITLE14=Sugar Daddy - Sweet soca mu7sic
TTITLE15=Gemeli Diversi - Mary
TTITLE16=Eminem - Business
TTITLE17=Eagle Eye Chery - Skull Tattoo
TTITLE18=Negrita - Magnolia
TTITLE19=Colletivo Soleluna - A Vida
EXTD=
EXTT0=
EXTT1=
EXTT2=
EXTT3=
EXTT4=
EXTT5=
EXTT6=
EXTT7=
EXTT8=
EXTT9=
EXTT10=
EXTT11=
EXTT12=
EXTT13=
EXTT14=
EXTT15=
EXTT16=
EXTT17=
EXTT18=
EXTT19=
PLAYORDER=
